<?xml version="1.0" encoding="utf-8" ?>
<svg baseProfile="full" height="297mm" version="1.1" width="210mm" xmlns="http://www.w3.org/2000/svg" xmlns:ev="http://www.w3.org/2001/xml-events" xmlns:xlink="http://www.w3.org/1999/xlink"><defs /><rect fill="black" height="20.0" width="20.0" x="25.0" y="38.5" /><rect fill="black" height="20.0" width="20.0" x="25.0" y="78.5" /><rect fill="black" height="20.0" width="20.0" x="25.0" y="118.5" /><rect fill="black" height="20.0" width="20.0" x="25.0" y="158.5" /><rect fill="black" height="20.0" width="20.0" x="25.0" y="198.5" /><rect fill="black" height="20.0" width="20.0" x="25.0" y="238.5" /><rect fill="black" height="20.0" width="20.0" x="45.0" y="58.5" /><rect fill="black" height="20.0" width="20.0" x="45.0" y="98.5" /><rect fill="black" height="20.0" width="20.0" x="45.0" y="138.5" /><rect fill="black" height="20.0" width="20.0" x="45.0" y="178.5" /><rect fill="black" height="20.0" width="20.0" x="45.0" y="218.5" /><rect fill="black" height="20.0" width="20.0" x="65.0" y="38.5" /><rect fill="black" height="20.0" width="20.0" x="65.0" y="78.5" /><rect fill="black" height="20.0" width="20.0" x="65.0" y="118.5" /><rect fill="black" height="20.0" width="20.0" x="65.0" y="158.5" /><rect fill="black" height="20.0" width="20.0" x="65.0" y="198.5" /><rect fill="black" height="20.0" width="20.0" x="65.0" y="238.5" /><rect fill="black" height="20.0" width="20.0" x="85.0" y="58.5" /><rect fill="black" height="20.0" width="20.0" x="85.0" y="98.5" /><rect fill="black" height="20.0" width="20.0" x="85.0" y="138.5" /><rect fill="black" height="20.0" width="20.0" x="85.0" y="178.5" /><rect fill="black" height="20.0" width="20.0" x="85.0" y="218.5" /><rect fill="black" height="20.0" width="20.0" x="105.0" y="38.5" /><rect fill="black" height="20.0" width="20.0" x="105.0" y="78.5" /><rect fill="black" height="20.0" width="20.0" x="105.0" y="118.5" /><rect fill="black" height="20.0" width="20.0" x="105.0" y="158.5" /><rect fill="black" height="20.0" width="20.0" x="105.0" y="198.5" /><rect fill="black" height="20.0" width="20.0" x="105.0" y="238.5" /><rect fill="black" height="20.0" width="20.0" x="125.0" y="58.5" /><rect fill="black" height="20.0" width="20.0" x="125.0" y="98.5" /><rect fill="black" height="20.0" width="20.0" x="125.0" y="138.5" /><rect fill="black" height="20.0" width="20.0" x="125.0" y="178.5" /><rect fill="black" height="20.0" width="20.0" x="125.0" y="218.5" /><rect fill="black" height="20.0" width="20.0" x="145.0" y="38.5" /><rect fill="black" height="20.0" width="20.0" x="145.0" y="78.5" /><rect fill="black" height="20.0" width="20.0" x="145.0" y="118.5" /><rect fill="black" height="20.0" width="20.0" x="145.0" y="158.5" /><rect fill="black" height="20.0" width="20.0" x="145.0" y="198.5" /><rect fill="black" height="20.0" width="20.0" x="145.0" y="238.5" /><rect fill="black" height="20.0" width="20.0" x="165.0" y="58.5" /><rect fill="black" height="20.0" width="20.0" x="165.0" y="98.5" /><rect fill="black" height="20.0" width="20.0" x="165.0" y="138.5" /><rect fill="black" height="20.0" width="20.0" x="165.0" y="178.5" /><rect fill="black" height="20.0" width="20.0" x="165.0" y="218.5" /></svg>