<?xml version="1.0" encoding="utf-8" ?>
<svg baseProfile="full" height="297mm" version="1.1" width="210mm" xmlns="http://www.w3.org/2000/svg" xmlns:ev="http://www.w3.org/2001/xml-events" xmlns:xlink="http://www.w3.org/1999/xlink"><defs /><rect fill="black" height="20.0" width="20.0" x="35.0" y="58.5" /><rect fill="black" height="20.0" width="20.0" x="35.0" y="98.5" /><rect fill="black" height="20.0" width="20.0" x="35.0" y="138.5" /><rect fill="black" height="20.0" width="20.0" x="35.0" y="178.5" /><rect fill="black" height="20.0" width="20.0" x="35.0" y="218.5" /><rect fill="black" height="20.0" width="20.0" x="55.0" y="78.5" /><rect fill="black" height="20.0" width="20.0" x="55.0" y="118.5" /><rect fill="black" height="20.0" width="20.0" x="55.0" y="158.5" /><rect fill="black" height="20.0" width="20.0" x="55.0" y="198.5" /><rect fill="black" height="20.0" width="20.0" x="75.0" y="58.5" /><rect fill="black" height="20.0" width="20.0" x="75.0" y="98.5" /><rect fill="black" height="20.0" width="20.0" x="75.0" y="138.5" /><rect fill="black" height="20.0" width="20.0" x="75.0" y="178.5" /><rect fill="black" height="20.0" width="20.0" x="75.0" y="218.5" /><rect fill="black" height="20.0" width="20.0" x="95.0" y="78.5" /><rect fill="black" height="20.0" width="20.0" x="95.0" y="118.5" /><rect fill="black" height="20.0" width="20.0" x="95.0" y="158.5" /><rect fill="black" height="20.0" width="20.0" x="95.0" y="198.5" /><rect fill="black" height="20.0" width="20.0" x="115.0" y="58.5" /><rect fill="black" height="20.0" width="20.0" x="115.0" y="98.5" /><rect fill="black" height="20.0" width="20.0" x="115.0" y="138.5" /><rect fill="black" height="20.0" width="20.0" x="115.0" y="178.5" /><rect fill="black" height="20.0" width="20.0" x="115.0" y="218.5" /><rect fill="black" height="20.0" width="20.0" x="135.0" y="78.5" /><rect fill="black" height="20.0" width="20.0" x="135.0" y="118.5" /><rect fill="black" height="20.0" width="20.0" x="135.0" y="158.5" /><rect fill="black" height="20.0" width="20.0" x="135.0" y="198.5" /><rect fill="black" height="20.0" width="20.0" x="155.0" y="58.5" /><rect fill="black" height="20.0" width="20.0" x="155.0" y="98.5" /><rect fill="black" height="20.0" width="20.0" x="155.0" y="138.5" /><rect fill="black" height="20.0" width="20.0" x="155.0" y="178.5" /><rect fill="black" height="20.0" width="20.0" x="155.0" y="218.5" /></svg>